<svg xmlns="http://www.w3.org/2000/svg" fill="none" viewBox="0 0 1261 155">
  <path fill="#1F2348" d="M284.655 35.862h14.961v87.269h-11.519l-47.038-60.858v60.858h-14.914V35.862h11.472l47.038 60.859V35.862ZM329.404 123.131V35.862h16.062v87.269h-16.062ZM447.569 35.862h12.62v87.269h-13.767V69.162l-23.519 53.969h-10.326l-23.519-53.969v53.969h-13.767V35.862h12.62l29.829 68.322 29.829-68.322ZM490.021 123.131V35.862h16.062v87.269h-16.062ZM613.376 103.246c-4.681 9.3-11.955 14.766-18.403 17.43.757 1.746 4.314 6.614 6.999 9.416 2.684 2.802 5.507 5.65 9.086 8.543l-10.899 8.612c-4.015-2.802-7.503-6.155-11.06-10.059-3.556-3.904-6.585-8.221-9.339-13.021-.665.046-2.524.115-3.694.115-8.88 0-16.291-1.814-22.693-5.42-6.402-3.629-11.289-8.819-14.662-15.616-3.098-6.178-5.094-14.423-5.094-23.747s1.721-16.948 5.14-23.746c3.419-6.775 8.329-11.988 14.731-15.616 6.402-3.629 13.882-5.42 22.578-5.42 8.697 0 16.292 1.814 22.693 5.42 6.402 3.628 11.289 8.818 14.662 15.616 3.396 6.798 5.094 14.422 5.094 23.746 0 9.324-2.042 17.592-5.139 23.747Zm-56.745.068c4.635 5.558 11.106 8.337 19.435 8.337 8.329 0 14.823-2.779 19.435-8.337 4.635-5.58 6.953-13.434 6.953-23.815 0-10.311-2.318-18.349-6.953-23.86-4.635-5.512-11.106-8.291-19.435-8.291-8.329 0-14.823 2.733-19.435 8.221-4.635 5.49-6.952 13.55-6.952 23.93 0 10.38 2.317 18.235 6.952 23.815ZM731.711 124 694.04 36.926h8.275l34.954 81.64h-3.335l35.2-81.64h8.028L739.245 124h-7.534Zm73.1.988c-5.599 0-10.457-1.276-14.574-3.829-4.117-2.552-7.287-6.216-9.511-10.992-2.223-4.776-3.334-10.498-3.334-17.168s1.111-12.35 3.334-17.044c2.306-4.776 5.517-8.44 9.634-10.992 4.117-2.635 8.934-3.953 14.451-3.953 5.681 0 10.58 1.482 14.697 4.447 4.2 2.964 6.958 6.999 8.276 12.104h-1.483l1.235-15.44h7.288c-.247 2.389-.495 4.735-.742 7.04a95.744 95.744 0 0 0-.247 6.794V124h-7.534v-15.439h1.359c-1.317 5.105-4.076 9.14-8.275 12.104-4.117 2.882-8.975 4.323-14.574 4.323Zm.988-6.422c6.34 0 11.363-2.182 15.068-6.546 3.705-4.364 5.558-10.705 5.558-19.02 0-8.317-1.853-14.657-5.558-19.021-3.705-4.364-8.728-6.546-15.068-6.546s-11.404 2.182-15.192 6.546c-3.705 4.364-5.558 10.704-5.558 19.02 0 8.316 1.853 14.657 5.558 19.021 3.788 4.364 8.852 6.546 15.192 6.546ZM854.316 124V33.097h7.534V124h-7.534Zm28.103 0V62.122h7.534V124h-7.534Zm-1.235-77.07v-9.386h10.128v9.386h-10.128Zm52.681 78.058c-5.516 0-10.333-1.276-14.45-3.829-4.117-2.552-7.287-6.216-9.51-10.992-2.224-4.776-3.335-10.498-3.335-17.168s1.111-12.35 3.335-17.044c2.223-4.776 5.393-8.44 9.51-10.992 4.117-2.635 8.934-3.953 14.45-3.953 5.682 0 10.581 1.482 14.698 4.447 4.199 2.882 6.999 6.875 8.399 11.98h-1.482v-44.34h7.534V124h-7.411v-15.562h1.359c-1.4 5.187-4.2 9.263-8.399 12.227-4.117 2.882-9.016 4.323-14.698 4.323Zm.988-6.422c6.258 0 11.281-2.182 15.069-6.546 3.87-4.364 5.805-10.705 5.805-19.02 0-8.317-1.935-14.657-5.805-19.021-3.788-4.364-8.811-6.546-15.069-6.546-6.257 0-11.28 2.182-15.068 6.546-3.705 4.364-5.558 10.704-5.558 19.02 0 8.316 1.853 14.657 5.558 19.021 3.788 4.364 8.811 6.546 15.068 6.546Zm72.107 6.422c-5.6 0-10.456-1.276-14.573-3.829-4.117-2.552-7.287-6.216-9.511-10.992-2.223-4.776-3.334-10.498-3.334-17.168s1.111-12.35 3.334-17.044c2.306-4.776 5.517-8.44 9.634-10.992 4.117-2.635 8.93-3.953 14.45-3.953 5.68 0 10.58 1.482 14.7 4.447 4.2 2.964 6.96 6.999 8.27 12.104h-1.48l1.24-15.44h7.28c-.24 2.389-.49 4.735-.74 7.04-.16 2.306-.24 4.57-.24 6.794V124h-7.54v-15.439h1.36c-1.32 5.105-4.08 9.14-8.28 12.104-4.11 2.882-8.97 4.323-14.57 4.323Zm.99-6.422c6.34 0 11.36-2.182 15.07-6.546 3.7-4.364 5.55-10.705 5.55-19.02 0-8.317-1.85-14.657-5.55-19.021-3.71-4.364-8.73-6.546-15.07-6.546s-11.405 2.182-15.193 6.546c-3.705 4.364-5.558 10.704-5.558 19.02 0 8.316 1.853 14.657 5.558 19.021 3.788 4.364 8.853 6.546 15.193 6.546Zm68.52 6.422c-5.51 0-9.75-1.647-12.72-4.94-2.88-3.294-4.32-8.358-4.32-15.192V68.174h-12.35v-6.052h12.35V44.83l7.53-2.47v19.76h18.28v6.053h-18.28v35.57c0 5.188.83 8.934 2.47 11.24 1.65 2.305 4.29 3.458 7.91 3.458 1.65 0 3.09-.165 4.32-.494 1.32-.329 2.43-.7 3.34-1.112v6.67c-.99.412-2.27.741-3.83.988-1.57.329-3.13.494-4.7.494Zm45.46 0c-5.85 0-10.91-1.276-15.19-3.829-4.2-2.552-7.45-6.216-9.76-10.992-2.3-4.776-3.46-10.498-3.46-17.168 0-6.587 1.16-12.268 3.46-17.044 2.31-4.776 5.56-8.44 9.76-10.992 4.28-2.635 9.34-3.953 15.19-3.953 5.76 0 10.74 1.318 14.94 3.953 4.29 2.552 7.58 6.216 9.88 10.992 2.39 4.776 3.59 10.457 3.59 17.044 0 6.67-1.2 12.392-3.59 17.168-2.3 4.776-5.59 8.44-9.88 10.992-4.2 2.553-9.18 3.829-14.94 3.829Zm0-6.422c6.26 0 11.28-2.182 15.07-6.546 3.79-4.364 5.68-10.705 5.68-19.02 0-8.317-1.89-14.657-5.68-19.021-3.79-4.364-8.81-6.546-15.07-6.546-6.34 0-11.4 2.182-15.19 6.546-3.71 4.364-5.56 10.704-5.56 19.02 0 8.316 1.85 14.657 5.56 19.021 3.79 4.364 8.85 6.546 15.19 6.546ZM1166.7 124V76.572c0-2.387-.08-4.775-.24-7.163-.08-2.47-.29-4.9-.62-7.287h7.41l.99 14.203-1.48.124c.82-3.458 2.3-6.299 4.44-8.522 2.14-2.306 4.61-4.035 7.41-5.188 2.8-1.152 5.68-1.729 8.65-1.729 1.07 0 2.06.083 2.96.247.99.083 1.9.247 2.72.494l-.25 6.793c-.98-.329-1.97-.535-2.96-.617a38.88 38.88 0 0 0-3.21-.124c-3.71 0-6.96.906-9.76 2.718-2.72 1.811-4.82 4.117-6.3 6.916-1.48 2.8-2.22 5.64-2.22 8.522V124h-7.54Zm62.59.988c-4.77 0-9.26-.7-13.46-2.1-4.12-1.399-7.53-3.334-10.25-5.805l2.96-5.557c3.05 2.47 6.34 4.322 9.88 5.557 3.54 1.153 7.25 1.73 11.12 1.73 5.27 0 9.26-.988 11.98-2.965 2.72-1.976 4.08-4.652 4.08-8.028 0-2.635-.87-4.775-2.6-6.422-1.73-1.647-4.61-2.882-8.64-3.706l-11.12-2.346c-5.27-1.235-9.22-3.211-11.86-5.929-2.55-2.717-3.82-6.134-3.82-10.25 0-3.541.9-6.67 2.71-9.388 1.9-2.717 4.57-4.858 8.03-6.422 3.46-1.565 7.53-2.347 12.23-2.347 4.44 0 8.52.741 12.23 2.223 3.78 1.4 6.87 3.417 9.26 6.052l-3.21 5.435c-2.47-2.47-5.27-4.323-8.4-5.558-3.05-1.235-6.3-1.853-9.76-1.853-5.1 0-8.97 1.07-11.61 3.212-2.63 2.058-3.95 4.816-3.95 8.275 0 2.634.82 4.816 2.47 6.546 1.65 1.646 4.24 2.882 7.78 3.705l11.12 2.47c5.6 1.235 9.75 3.129 12.47 5.681 2.72 2.553 4.08 5.929 4.08 10.128 0 3.623-.99 6.793-2.97 9.51-1.97 2.635-4.73 4.653-8.27 6.052-3.54 1.4-7.7 2.1-12.48 2.1Z"/>
  <path fill="url(#a)" d="m162.175 73.156-34.17-59.312A13.693 13.693 0 0 0 116.16 7H47.82c-2.4 0-4.756.633-6.832 1.835a13.616 13.616 0 0 0-4.99 5.009L1.828 73.156a13.726 13.726 0 0 0 0 13.688l34.17 59.312A13.636 13.636 0 0 0 47.82 153h68.34c2.4 0 4.757-.633 6.833-1.835a13.613 13.613 0 0 0 4.989-5.009l34.17-59.312a13.667 13.667 0 0 0 .023-13.688Z"/>
  <path fill="url(#b)" fill-rule="evenodd" d="M76.735 30.018c-5.182-3.696-12.215-1.849-14.806 3.696l-2.961 8.131c-1.48 3.327-4.442 5.545-7.404 5.914l-8.883 1.11c-5.922.738-9.993 7.392-7.402 12.936l3.331 7.762c1.11 3.327.74 7.023-1.48 9.61l-5.183 6.653c-3.701 5.175-1.85 12.198 3.702 14.785l8.143 2.957c3.332 1.479 5.553 4.435 5.922 7.393l1.111 8.87c.74 5.914 7.403 9.61 12.956 7.393l7.773-3.327c3.33-1.109 7.032-.739 9.623 1.479l6.663 5.174c5.182 3.696 12.215 1.844 14.806-4.07l2.961-7.758c1.481-3.326 4.442-5.544 7.404-5.913l8.883-1.11c5.923-.738 9.624-7.392 7.403-12.936l-3.332-7.762c-1.11-3.327-.739-7.023 1.481-9.61l5.182-6.653c3.702-5.175 1.847-12.198-4.076-14.785L120.784 57a9.612 9.612 0 0 1-5.923-7.393l-1.11-8.87c-.74-5.914-7.403-9.98-12.955-7.393l-7.774 3.327c-3.331 1.109-7.032.739-9.624-1.478l-6.663-5.175Zm26.651 41.767a3.794 3.794 0 0 0-.485-5.718 3.805 3.805 0 0 0-4.697.173l-22.21 21.438-9.623-9.61a3.798 3.798 0 0 0-6.386 2.903 3.788 3.788 0 0 0 1.204 2.641L73.404 95.44c1.48 1.11 3.701 1.11 5.182 0l24.8-23.655Z" clip-rule="evenodd"/>
  <defs>
    <radialGradient id="a" cx="0" cy="0" r="1" gradientTransform="matrix(164.056 0 0 164.292 123.374 151.099)" gradientUnits="userSpaceOnUse">
      <stop stop-color="#EC991C"/>
      <stop offset="1" stop-color="#E9B213"/>
    </radialGradient>
    <radialGradient id="b" cx="0" cy="0" r="1" gradientTransform="rotate(135.33 51.694 47.134) scale(101.993 102.905)" gradientUnits="userSpaceOnUse">
      <stop offset=".188" stop-color="white"/>
      <stop offset=".613" stop-color="white" stop-opacity=".857"/>
      <stop offset="1" stop-color="white" stop-opacity=".6"/>
    </radialGradient>
  </defs>
</svg>
