<svg xmlns="http://www.w3.org/2000/svg" width="295" height="263" fill="none"><path fill="url(#a)" d="M291.717 119.172 230.253 12.328C225.828 4.685 217.715 0 208.946 0H86.018a24.51 24.51 0 0 0-21.266 12.328L3.288 119.172a24.753 24.753 0 0 0 0 24.656l61.464 106.844A24.51 24.51 0 0 0 86.018 263h122.928a24.51 24.51 0 0 0 21.266-12.328l61.464-106.844a24.655 24.655 0 0 0 .041-24.656Z"/><path fill="url(#b)" fill-rule="evenodd" d="M138.028 41.464c-9.321-6.658-21.972-3.33-26.633 6.658l-5.326 14.648c-2.663 5.993-7.99 9.988-13.317 10.653l-15.98 1.998C66.12 76.752 58.797 88.737 63.457 98.725l5.993 13.982c1.997 5.992 1.331 12.65-2.663 17.311l-9.322 11.985c-6.658 9.321-3.33 21.972 6.658 26.633l14.648 5.326c5.993 2.664 9.988 7.99 10.653 13.317l1.998 15.979c1.331 10.654 13.316 17.312 23.304 13.317l13.982-5.993c5.992-1.997 12.65-1.331 17.311 2.664l11.985 9.321c9.321 6.658 21.972 3.322 26.633-7.332l5.326-13.974c2.664-5.992 7.99-9.987 13.317-10.653l15.979-1.998c10.654-1.331 17.312-13.316 13.317-23.303l-5.993-13.983c-1.997-5.992-1.331-12.65 2.664-17.311l9.321-11.985c6.658-9.321 3.322-21.972-7.332-26.633l-13.974-5.326a17.313 17.313 0 0 1-10.653-13.317l-1.998-15.98c-1.331-10.652-13.316-17.976-23.303-13.316l-13.983 5.993c-5.992 1.997-12.65 1.331-17.311-2.663l-11.985-9.322Zm47.939 75.238a6.84 6.84 0 0 0-4.499-11.601 6.84 6.84 0 0 0-4.822 1.613l-39.949 38.618-17.312-17.311a6.83 6.83 0 1 0-9.321 9.987l21.972 21.306c2.663 1.998 6.658 1.998 9.321 0l44.61-42.612Z" clip-rule="evenodd"/><defs><radialGradient id="a" cx="0" cy="0" r="1" gradientTransform="matrix(295.101 0 0 295.951 221.922 259.575)" gradientUnits="userSpaceOnUse"><stop stop-color="#EC991C"/><stop offset="1" stop-color="#E9B213"/></radialGradient><radialGradient id="b" cx="0" cy="0" r="1" gradientTransform="matrix(-130.46921 129.16865 -130.3253 -131.6375 218.718 67.209)" gradientUnits="userSpaceOnUse"><stop offset=".188" stop-color="#fff"/><stop offset=".613" stop-color="#fff" stop-opacity=".857"/><stop offset="1" stop-color="#fff" stop-opacity=".6"/></radialGradient></defs></svg>
