<svg xmlns="http://www.w3.org/2000/svg" width="295" height="263" fill="none"><path fill="url(#a)" d="M291.717 119.172 230.253 12.328C225.828 4.685 217.715 0 208.946 0H86.018a24.51 24.51 0 0 0-21.266 12.328L3.288 119.172a24.753 24.753 0 0 0 0 24.656l61.464 106.844A24.51 24.51 0 0 0 86.018 263h122.928a24.51 24.51 0 0 0 21.266-12.328l61.464-106.844a24.655 24.655 0 0 0 .041-24.656Z"/><path fill="url(#b)" fill-rule="evenodd" d="M140.15 60.727c-7.338-5.242-17.297-2.62-20.966 5.242L114.99 77.5c-2.096 4.717-6.289 7.862-10.483 8.386l-12.58 1.573c-8.386 1.048-14.152 10.483-10.483 18.345l4.718 11.008c1.572 4.717 1.048 9.959-2.097 13.628l-7.338 9.435c-5.242 7.338-2.62 17.297 5.242 20.966l11.531 4.193c4.717 2.097 7.862 6.29 8.386 10.483l1.573 12.58c1.048 8.387 10.483 13.628 18.345 10.483l11.008-4.717c4.717-1.573 9.959-1.049 13.628 2.096l9.435 7.339c7.338 5.241 17.297 2.614 20.966-5.772l4.193-11.001c2.097-4.718 6.29-7.863 10.483-8.387l12.58-1.572c8.387-1.049 13.628-10.484 10.483-18.346l-4.717-11.007c-1.573-4.718-1.049-9.959 2.096-13.628l7.339-9.435c5.241-7.338 2.614-17.297-5.772-20.966l-11.001-4.194a13.63 13.63 0 0 1-8.387-10.483l-1.572-12.58c-1.049-8.386-10.484-14.152-18.346-10.483l-11.007 4.718c-4.718 1.572-9.959 1.048-13.628-2.097l-9.435-7.338Zm37.739 59.23a5.384 5.384 0 0 0-7.338-7.863l-31.449 30.401-13.628-13.628a5.41 5.41 0 0 0-1.784-1.105 5.394 5.394 0 0 0-5.817 1.367 5.394 5.394 0 0 0-1.105 1.784 5.394 5.394 0 0 0 1.367 5.817l17.298 16.773c2.096 1.572 5.241 1.572 7.338 0l35.118-33.546Z" clip-rule="evenodd"/><defs><radialGradient id="a" cx="0" cy="0" r="1" gradientTransform="matrix(295.101 0 0 295.951 221.922 259.575)" gradientUnits="userSpaceOnUse"><stop stop-color="#EC991C"/><stop offset="1" stop-color="#E9B213"/></radialGradient><radialGradient id="b" cx="0" cy="0" r="1" gradientTransform="rotate(135.287 85.18 82.38) scale(144.532 145.826)" gradientUnits="userSpaceOnUse"><stop offset=".188" stop-color="#fff"/><stop offset=".613" stop-color="#fff" stop-opacity=".857"/><stop offset="1" stop-color="#fff" stop-opacity=".6"/></radialGradient></defs></svg>
