<svg xmlns="http://www.w3.org/2000/svg" width="295" height="263" fill="none"><path fill="url(#a)" d="M291.717 119.172 230.253 12.328C225.828 4.685 217.715 0 208.946 0H86.018a24.51 24.51 0 0 0-21.266 12.328L3.288 119.172a24.753 24.753 0 0 0 0 24.656l61.464 106.844A24.51 24.51 0 0 0 86.018 263h122.928a24.51 24.51 0 0 0 21.266-12.328l61.464-106.844a24.655 24.655 0 0 0 .041-24.656Z"/><path stroke="url(#b)" stroke-linecap="round" stroke-linejoin="round" stroke-miterlimit="10" stroke-width="14" d="m122.684 131.814 16.88 16.335 33.752-32.67m-35.737-53.33A13.125 13.125 0 0 1 148 57a13.118 13.118 0 0 1 10.421 5.15l7.118 9.31a13.117 13.117 0 0 0 12.157 5.04l11.625-1.554a13.12 13.12 0 0 1 14.733 14.733l-1.547 11.625a13.114 13.114 0 0 0 5.032 12.157l9.311 7.118a13.117 13.117 0 0 1 0 20.842l-9.311 7.118a13.12 13.12 0 0 0-4.154 5.401c-.885 2.134-1.19 4.465-.885 6.756l1.554 11.625a13.108 13.108 0 0 1-3.728 11.005 13.115 13.115 0 0 1-11.005 3.728l-11.625-1.547a13.114 13.114 0 0 0-12.157 5.032l-7.118 9.311a13.117 13.117 0 0 1-20.842 0l-7.118-9.311a13.12 13.12 0 0 0-5.401-4.154c-2.134-.885-4.465-1.19-6.756-.885l-11.625 1.554a13.108 13.108 0 0 1-11.005-3.728 13.123 13.123 0 0 1-3.728-11.005l1.547-11.625a13.117 13.117 0 0 0-5.032-12.157l-9.311-7.111A13.125 13.125 0 0 1 74 131.007a13.118 13.118 0 0 1 5.15-10.421l9.31-7.125a13.117 13.117 0 0 0 5.047-12.157l-1.555-11.625a13.119 13.119 0 0 1 14.734-14.733l11.625 1.547a13.119 13.119 0 0 0 12.157-5.032l7.111-9.311Z"/><defs><radialGradient id="a" cx="0" cy="0" r="1" gradientTransform="matrix(295.101 0 0 295.951 221.922 259.575)" gradientUnits="userSpaceOnUse"><stop stop-color="#EC991C"/><stop offset="1" stop-color="#E9B213"/></radialGradient><linearGradient id="b" x1="90.518" x2="203.5" y1="71.536" y2="184.518" gradientUnits="userSpaceOnUse"><stop offset=".19" stop-color="#fff"/><stop offset=".61" stop-color="#fff" stop-opacity=".86"/><stop offset="1" stop-color="#fff" stop-opacity=".6"/></linearGradient></defs></svg>
